HIERARCHY
ROOT Hips
{
	OFFSET -0.001795 -0.223333 0.028219
	CHANNELS 6 Xposition Yposition Zposition Zrotation Yrotation Xrotation 
	JOINT LeftUpLeg
	{
		OFFSET 0.069520 -0.091406 -0.006815
		CHANNELS 3 Zrotation Yrotation Xrotation
		JOINT LeftLeg
		{
			OFFSET 0.034277 -0.375199 -0.004496
			CHANNELS 3 Zrotation Yrotation Xrotation
			JOINT LeftFoot
			{
				OFFSET -0.013596 -0.397961 -0.043693
				CHANNELS 3 Zrotation Yrotation Xrotation
				JOINT LeftToe
				{
					OFFSET 0.026358 -0.055791 0.119288
					CHANNELS 3 Zrotation Yrotation Xrotation
					End Site
					{
						OFFSET 0.000000 0.000000 0.000000
					}
				}
			}
		}
	}
	JOINT RightUpLeg
	{
		OFFSET -0.067670 -0.090522 -0.004320
		CHANNELS 3 Zrotation Yrotation Xrotation
		JOINT RightLeg
		{
			OFFSET -0.038290 -0.382569 -0.008850
			CHANNELS 3 Zrotation Yrotation Xrotation
			JOINT RightFoot
			{
				OFFSET 0.015774 -0.398415 -0.042312
				CHANNELS 3 Zrotation Yrotation Xrotation
				JOINT RightToe
				{
					OFFSET -0.025372 -0.048144 0.123348
					CHANNELS 3 Zrotation Yrotation Xrotation
					End Site
					{
						OFFSET 0.000000 0.000000 0.000000
					}
				}
			}
		}
	}
	JOINT Spine
	{
		OFFSET -0.002533 0.108963 -0.026696
		CHANNELS 3 Zrotation Yrotation Xrotation
		JOINT Spine1
		{
			OFFSET 0.005487 0.135180 0.001092
			CHANNELS 3 Zrotation Yrotation Xrotation
			JOINT Spine2
			{
				OFFSET 0.001457 0.052922 0.025425
				CHANNELS 3 Zrotation Yrotation Xrotation
				JOINT Neck
				{
					OFFSET -0.002778 0.213870 -0.042857
					CHANNELS 3 Zrotation Yrotation Xrotation
					JOINT Head
					{
						OFFSET 0.005152 0.064970 0.051349
						CHANNELS 3 Zrotation Yrotation Xrotation
						End Site
						{
							OFFSET 0.000000 0.000000 0.000000
						}
					}
				}
				JOINT LeftShoulder
				{
					OFFSET 0.078845 0.121749 -0.034090
					CHANNELS 3 Zrotation Yrotation Xrotation
					JOINT LeftArm
					{
						OFFSET 0.090977 0.030469 -0.008868
						CHANNELS 3 Zrotation Yrotation Xrotation
						JOINT LeftForeArm
						{
							OFFSET 0.259612 -0.012772 -0.027456
							CHANNELS 3 Zrotation Yrotation Xrotation
							JOINT LeftHand
							{
								OFFSET 0.249234 0.008986 -0.001171
								CHANNELS 3 Zrotation Yrotation Xrotation
								End Site
								{
									OFFSET 0.000000 0.000000 0.000000
								}
							}
						}
					}
				}
				JOINT RightShoulder
				{
					OFFSET -0.081759 0.118833 -0.038615
					CHANNELS 3 Zrotation Yrotation Xrotation
					JOINT RightArm
					{
						OFFSET -0.096012 0.032551 -0.009143
						CHANNELS 3 Zrotation Yrotation Xrotation
						JOINT RightForeArm
						{
							OFFSET -0.253742 -0.013329 -0.021401
							CHANNELS 3 Zrotation Yrotation Xrotation
							JOINT RightHand
							{
								OFFSET -0.255298 0.007772 -0.005559
								CHANNELS 3 Zrotation Yrotation Xrotation
								End Site
								{
									OFFSET 0.000000 0.000000 0.000000
								}
							}
						}
					}
				}
			}
		}
	}
}
MOTION
Frames: 17
Frame Time: 0.050000
0.000000 0.958342 0.000000 -1.168493 1.346535 3.010312 5.578632 -0.204597 -1.909992 -4.303052 0.435764 -4.163571 3.492365 10.570549 12.765299 0.000000 0.000000 0.000000 -4.950282 0.409044 -4.764942 1.689174 -0.127680 2.291632 -3.172846 -11.008770 13.130571 0.000000 0.000000 0.000000 -0.090671 -0.456796 10.901232 5.224707 -0.826171 -21.082046 0.404405 -1.551158 25.871885 -1.471429 2.221787 -24.258818 0.000000 0.000000 0.000000 -18.008056 -15.330229 7.385181 -48.873440 -33.852033 6.000400 -50.506565 -58.372488 34.318581 0.000000 0.000000 0.000000 10.447423 17.913831 7.456118 44.934976 18.377788 0.266716 31.029944 58.786457 20.494498 0.000000 0.000000 0.000000 
0.000863 0.957297 0.001208 -1.444986 0.392905 3.093622 5.637012 -0.175676 -1.443973 -4.009636 0.424762 -4.271370 3.430217 10.349622 12.641268 0.000000 0.000000 0.000000 -4.756090 0.397433 -4.335667 1.397218 -0.099928 1.772489 -2.491163 -9.720648 12.363492 0.000000 0.000000 0.000000 -0.330019 -0.405662 10.500632 5.043692 -0.703996 -22.397338 0.441356 -1.512573 26.515651 -1.307124 2.069477 -25.083255 0.000000 0.000000 0.000000 -17.442353 -14.042923 6.809556 -50.407566 -34.016357 6.356077 -55.300514 -57.629382 37.424662 0.000000 0.000000 0.000000 9.988998 17.621130 7.189099 46.019978 16.759125 -0.308854 36.640864 58.921353 23.879142 0.000000 0.000000 0.000000 
0.001468 0.957192 0.002220 -1.396400 -0.410833 2.789797 5.856167 -0.153807 -1.207624 -4.385563 0.464674 -3.278290 3.297117 9.864720 11.687124 0.000000 0.000000 0.000000 -5.050063 0.391656 -4.197889 1.475623 -0.102955 1.897078 -2.410517 -9.925568 13.494069 0.000000 0.000000 0.000000 -0.759477 -0.333014 9.979519 5.731092 -0.917242 -22.111081 -0.080498 -0.797883 25.504371 -1.282704 2.043781 -23.226698 0.000000 0.000000 0.000000 -18.036947 -13.641939 6.558881 -50.547699 -32.615311 5.822808 -54.394694 -55.720184 35.288012 0.000000 0.000000 0.000000 10.669700 17.259658 7.116104 45.775160 14.810645 -0.937234 40.816621 58.777105 26.331389 0.000000 0.000000 0.000000 
0.001884 0.956607 0.003032 -1.501131 -0.945012 2.750859 5.745112 -0.131644 -0.857062 -4.414324 0.470361 -3.715549 4.206071 11.357679 12.163998 0.000000 0.000000 0.000000 -5.085440 0.385132 -3.996558 1.610743 -0.121213 1.734884 -2.355997 -9.825826 13.172944 0.000000 0.000000 0.000000 -1.442909 -0.237742 9.290526 6.521599 -1.114387 -22.264583 -0.415746 -1.200247 25.880966 -1.015189 1.766854 -23.260079 0.000000 0.000000 0.000000 -17.989060 -12.885235 6.339824 -52.165701 -32.079621 5.874940 -54.945374 -54.180310 34.868530 0.000000 0.000000 0.000000 9.655286 16.672706 6.636959 46.516129 14.055863 -1.231733 45.414195 58.959384 29.166161 0.000000 0.000000 0.000000 
0.002179 0.956744 0.003685 -1.533929 -1.262715 2.479876 5.723503 -0.112950 -0.602809 -4.434713 0.476789 -3.543810 4.383990 11.594283 12.041814 0.000000 0.000000 0.000000 -5.175342 0.374754 -3.818114 1.551422 -0.119588 1.488718 -2.116094 -9.549951 13.676061 0.000000 0.000000 0.000000 -1.511682 -0.223263 9.036716 6.505693 -1.152426 -21.892214 -0.741882 -1.949617 25.269212 -0.790211 1.457571 -22.563880 0.000000 0.000000 0.000000 -18.047480 -12.644281 6.432255 -52.239161 -31.901497 5.868986 -54.157729 -53.931250 34.378952 0.000000 0.000000 0.000000 9.743702 16.215884 6.285581 46.053002 13.041156 -1.533394 48.948389 59.606709 31.477410 0.000000 0.000000 0.000000 
0.002469 0.956763 0.003900 -1.729214 -1.863206 2.512593 5.754006 -0.107733 -0.646129 -4.401793 0.479899 -3.565755 5.170945 12.798335 12.098920 0.000000 0.000000 0.000000 -5.009059 0.399330 -4.137699 1.542845 -0.106496 1.845679 -1.804408 -8.989953 13.355160 0.000000 0.000000 0.000000 -1.644059 -0.205864 8.998895 6.547230 -1.109420 -22.589655 -0.659244 -2.225136 25.746016 -0.944478 1.445319 -22.498654 0.000000 0.000000 0.000000 -18.289721 -12.850816 6.755321 -52.344922 -31.901010 5.827737 -55.280631 -53.485420 35.013226 0.000000 0.000000 0.000000 9.796797 16.430156 6.286314 44.942839 12.548449 -1.731137 51.190214 61.237542 33.762527 0.000000 0.000000 0.000000 
0.002599 0.956736 0.003862 -1.742814 -2.116281 2.594811 5.636891 -0.106712 -0.694990 -4.265350 0.471530 -3.484987 5.542426 13.402777 12.408272 0.000000 0.000000 0.000000 -5.092122 0.427050 -4.569703 1.690077 -0.111753 2.254822 -1.637170 -8.684623 13.220358 0.000000 0.000000 0.000000 -1.641591 -0.198028 8.751360 6.613120 -1.119486 -22.696526 -1.085354 -2.603277 25.605216 -0.724429 1.239341 -22.801689 0.000000 0.000000 0.000000 -18.519531 -12.781539 6.873798 -52.198925 -31.857988 5.777593 -57.839206 -52.953389 36.432951 0.000000 0.000000 0.000000 9.625037 16.158790 6.074777 43.766613 12.540811 -1.703013 54.804062 62.834142 37.092998 0.000000 0.000000 0.000000 
0.002674 0.957130 0.003843 -2.013539 -2.624912 2.679547 5.671487 -0.107778 -0.841944 -4.175544 0.469287 -3.191130 6.019709 14.104738 12.360433 0.000000 0.000000 0.000000 -4.829584 0.455740 -4.935055 1.793572 -0.113433 2.567232 -1.543904 -8.549126 13.091654 0.000000 0.000000 0.000000 -1.522399 -0.196447 8.323254 6.665877 -1.149209 -22.615563 -1.246398 -2.847968 25.655113 -0.721600 1.155137 -22.832309 0.000000 0.000000 0.000000 -18.524027 -12.847484 7.053160 -52.564959 -32.128759 5.986420 -60.079252 -52.909141 38.077334 0.000000 0.000000 0.000000 8.869336 15.897393 5.837840 42.678031 12.639527 -1.657738 58.455422 64.474940 40.643657 0.000000 0.000000 0.000000 
0.002520 0.957634 0.004185 -1.995333 -2.809874 2.721689 5.541395 -0.093576 -0.564624 -4.096337 0.463534 -3.416805 6.441243 14.788164 12.797921 0.000000 0.000000 0.000000 -4.710098 0.460817 -4.973427 1.563247 -0.087386 2.464617 -1.460784 -8.512505 13.411542 0.000000 0.000000 0.000000 -1.404859 -0.197615 7.999755 6.731623 -1.171301 -22.578190 -1.573635 -3.053539 25.675136 -0.891905 1.214167 -22.894907 0.000000 0.000000 0.000000 -18.653910 -13.056145 7.263227 -52.695378 -32.423005 6.157976 -61.291630 -52.764944 38.880610 0.000000 0.000000 0.000000 8.516288 15.543889 5.629343 41.647594 12.663578 -1.638120 61.502966 65.701765 43.684495 0.000000 0.000000 0.000000 
0.002134 0.958022 0.005018 -1.877574 -2.819635 2.641810 5.568513 -0.083777 -0.366225 -4.121812 0.466241 -3.293432 6.819973 15.384775 12.913490 0.000000 0.000000 0.000000 -4.666764 0.459280 -4.959702 1.299797 -0.056457 2.436324 -1.346961 -8.286300 13.330526 0.000000 0.000000 0.000000 -1.348127 -0.194759 7.703097 6.627055 -1.142353 -22.622116 -1.696497 -3.290985 25.870974 -0.828812 1.126831 -22.808631 0.000000 0.000000 0.000000 -18.661606 -13.079828 7.352868 -52.993119 -32.603551 6.281517 -62.814287 -52.726520 40.037349 0.000000 0.000000 0.000000 8.138902 15.151905 5.421709 41.057805 12.594967 -1.677488 64.577899 66.526778 46.597894 0.000000 0.000000 0.000000 
0.001604 0.958420 0.006017 -1.809564 -2.683636 2.475020 5.554906 -0.074458 -0.170311 -4.007775 0.455399 -3.213992 6.702211 15.242303 13.271098 0.000000 0.000000 0.000000 -4.609973 0.427115 -4.475934 1.045703 -0.031813 2.269307 -1.283531 -8.158504 13.354543 0.000000 0.000000 0.000000 -1.156315 -0.202947 7.381671 6.406889 -1.091856 -22.543697 -1.868061 -3.654557 26.146409 -0.941285 1.137166 -22.615943 0.000000 0.000000 0.000000 -18.128813 -13.306447 7.475051 -53.214467 -32.991446 6.529562 -63.841376 -52.861513 40.975112 0.000000 0.000000 0.000000 7.805549 14.911360 5.276466 40.170428 12.309604 -1.768466 65.607622 66.995574 47.604859 0.000000 0.000000 0.000000 
0.001145 0.958848 0.006713 -1.749180 -2.443575 2.287498 5.595253 -0.067733 -0.000191 -3.784511 0.434134 -3.071490 6.717013 15.300022 13.435216 0.000000 0.000000 0.000000 -4.645370 0.397978 -4.065523 0.856460 -0.017599 2.045257 -1.387908 -8.336920 13.431222 0.000000 0.000000 0.000000 -0.931156 -0.218358 7.237462 6.328609 -1.102953 -22.170552 -1.985819 -3.733166 26.194112 -0.955969 1.152640 -22.594784 0.000000 0.000000 0.000000 -17.697724 -13.478639 7.484261 -53.099300 -33.322419 6.687796 -64.818072 -53.398601 42.076765 0.000000 0.000000 0.000000 7.810550 14.731039 5.214357 39.849298 12.083292 -1.840684 65.134751 67.091869 47.323387 0.000000 0.000000 0.000000 
0.000693 0.959024 0.006849 -1.595051 -2.099058 2.169708 5.436021 -0.071564 -0.063546 -3.518143 0.407346 -2.831483 6.503607 15.013581 13.560380 0.000000 0.000000 0.000000 -4.747295 0.378316 -3.811043 0.629065 0.009583 2.077248 -1.513387 -8.528744 13.472454 0.000000 0.000000 0.000000 -0.913626 -0.219788 7.195095 6.404529 -1.140734 -21.931693 -1.972045 -3.829020 26.300291 -0.875917 1.121871 -22.741554 0.000000 0.000000 0.000000 -17.020725 -13.604682 7.417568 -52.894549 -33.805209 6.914214 -65.369470 -53.878100 42.809578 0.000000 0.000000 0.000000 7.589735 14.773933 5.242451 39.302281 11.893533 -1.892910 63.951254 67.422349 46.667233 0.000000 0.000000 0.000000 
0.000169 0.959451 0.006386 -1.529285 -2.211610 2.072942 5.292200 -0.080208 -0.347245 -3.311377 0.387796 -2.425192 6.376019 14.788096 13.329173 0.000000 0.000000 0.000000 -4.851626 0.371622 -3.698463 0.682045 0.003169 2.067748 -1.682170 -8.818811 13.348886 0.000000 0.000000 0.000000 -0.773387 -0.229735 7.169160 6.472297 -1.191705 -21.580372 -1.898567 -3.511472 26.412095 -0.820653 1.133810 -22.877747 0.000000 0.000000 0.000000 -16.445126 -13.737050 7.343809 -52.123777 -34.476661 7.087626 -66.139943 -54.789172 43.987017 0.000000 0.000000 0.000000 7.272270 14.885814 5.306895 39.259413 12.159572 -1.834851 61.926726 67.707509 45.409599 0.000000 0.000000 0.000000 
-0.000555 0.959739 0.005429 -1.444450 -2.382113 2.103526 5.269880 -0.080273 -0.389038 -3.380986 0.395437 -2.403466 6.111254 14.345138 13.114219 0.000000 0.000000 0.000000 -4.987801 0.376931 -3.753247 0.735659 -0.009670 1.870080 -1.720008 -8.945578 13.481162 0.000000 0.000000 0.000000 -0.748370 -0.236364 7.349399 6.467484 -1.206062 -21.402408 -1.554437 -3.316473 26.462298 -0.756035 1.109000 -22.944856 0.000000 0.000000 0.000000 -16.316155 -13.720623 7.301473 -51.006384 -34.611426 6.880413 -67.208725 -55.717350 45.460937 0.000000 0.000000 0.000000 7.368530 15.017197 5.372660 39.453615 12.198690 -1.831008 60.741817 67.933855 44.711660 0.000000 0.000000 0.000000 
-0.001539 0.959666 0.004359 -1.400381 -2.665945 2.532497 5.479980 -0.106904 -0.909917 -3.852488 0.441422 -2.152785 6.022241 14.147057 12.803994 0.000000 0.000000 0.000000 -4.922403 0.421103 -4.387921 0.716497 -0.002115 1.997595 -1.809345 -9.091955 13.267274 0.000000 0.000000 0.000000 -0.620688 -0.238735 7.162731 6.439952 -1.215866 -21.213206 -1.233997 -3.311072 26.528237 -0.695942 1.037609 -22.782730 0.000000 0.000000 0.000000 -16.068670 -13.609181 7.254712 -49.736799 -34.799304 6.676064 -67.638251 -56.996143 46.839813 0.000000 0.000000 0.000000 7.274497 15.165063 5.407913 39.450049 12.607754 -1.706396 61.638824 68.847793 46.087608 0.000000 0.000000 0.000000 
-0.002669 0.959361 0.003597 -1.495236 -3.295979 2.665434 5.797260 -0.113549 -1.208711 -4.241995 0.486101 -1.860680 6.086350 14.174631 12.621671 0.000000 0.000000 0.000000 -4.721094 0.448128 -4.713828 0.840458 -0.012371 2.069404 -1.780785 -9.081422 13.099402 0.000000 0.000000 0.000000 -0.452425 -0.248338 7.104473 6.400183 -1.269664 -20.613856 -0.904864 -3.084824 26.148655 -0.676454 0.994863 -22.355032 0.000000 0.000000 0.000000 -16.139811 -13.724847 7.348680 -48.443909 -34.130201 6.101252 -68.513777 -58.075227 48.332302 0.000000 0.000000 0.000000 7.636142 15.246485 5.427113 39.478878 12.663492 -1.646353 65.234762 70.161343 50.022081 0.000000 0.000000 0.000000 
